<svg width="40" height="40" viewBox="0 0 40 40" fill="none" xmlns="http://www.w3.org/2000/svg">
<path d="M21.3605 19.5009L27.822 13.033C27.936 12.9184 28 12.7634 27.9999 12.6018C27.9998 12.4402 27.9356 12.2852 27.8215 12.1708C27.593 11.9435 27.1906 11.9423 26.9598 12.1719L20.5 18.6398L14.0379 12.1702C13.8083 11.9435 13.4059 11.9446 13.1774 12.1714C13.1207 12.2278 13.0758 12.295 13.0453 12.3691C13.0149 12.4431 12.9995 12.5224 13 12.6025C13 12.7655 13.0632 12.9182 13.1774 13.0313L19.6389 19.5003L13.178 25.9698C13.064 26.0846 13.0001 26.2399 13.0004 26.4016C13.0008 26.5634 13.0652 26.7184 13.1797 26.8326C13.2905 26.9423 13.4472 27.0054 13.6091 27.0054H13.6125C13.775 27.0049 13.9317 26.9411 14.0402 26.8304L20.5 20.3625L26.9621 26.8321C27.0763 26.9457 27.229 27.0089 27.3909 27.0089C27.471 27.0091 27.5503 26.9935 27.6243 26.963C27.6983 26.9325 27.7655 26.8876 27.8221 26.831C27.8787 26.7744 27.9236 26.7072 27.9541 26.6332C27.9846 26.5592 28.0002 26.4799 28 26.3998C28 26.2374 27.9369 26.0841 27.822 25.971L21.3605 19.5009Z" fill="#333333"/>
</svg>
