<svg width="40" height="40" viewBox="0 0 40 40" fill="none" xmlns="http://www.w3.org/2000/svg">
<path d="M9.12395 33.8316L8.12016 35.4013C7.41499 36.6113 5.85324 37.0259 4.63183 36.3273C3.41064 35.6287 2.99195 34.0816 3.69712 32.8715L4.33409 31.942C4.57798 31.5948 5.17985 30.9953 6.38383 31.1081C6.38383 31.1081 9.21709 31.4127 9.42213 32.8715C9.42213 32.8715 9.44994 33.3515 9.12395 33.8316ZM37.4464 23.6187H31.4223C31.012 23.5913 30.833 23.4461 30.7624 23.3617L30.758 23.3541L25 14.0196C24.3661 13.0593 23.3597 15.5152 23.3597 15.5152C22.1579 18.2518 23.5303 21.363 24.0086 22.3034L31.8799 35.398C32.5848 36.6078 34.1465 37.0226 35.3682 36.3238C36.5894 35.6252 37.0081 34.0781 36.3027 32.868L34.0631 29.025C34.0196 28.9319 33.9442 28.6791 34.4035 28.678H37.4464C38.8567 28.678 40 27.5454 40 26.1482C40 24.751 38.8567 23.6187 37.4464 23.6187ZM22.9398 27.0578C22.9398 27.0578 23.2613 28.6782 22.0172 28.6782L2.55362 28.678C1.14328 28.678 0 27.5454 0 26.1482C0 24.751 1.14328 23.6184 2.55362 23.6184H8.27884C9.20318 23.5655 9.42213 23.0368 9.42213 23.0368L9.42742 23.0394L16.9007 10.216L16.8985 10.2156C17.0346 9.96783 16.9212 9.73365 16.9016 9.6967L14.4334 5.46165C13.7282 4.25185 14.1467 2.70446 15.3681 2.00608C16.5895 1.30749 18.1512 1.72184 18.8564 2.93185L20.001 4.896L21.1436 2.93535C21.8488 1.72555 23.4105 1.31077 24.6319 2.00958C25.8533 2.70817 26.2718 4.25513 25.5666 5.46515L15.1672 23.3093C15.1218 23.4179 15.1078 23.5885 15.4462 23.6184L18.8564 23.6187C18.8564 23.6187 22.4504 23.7341 22.9398 27.0578Z" fill="white"/>
</svg>
