<svg width="40" height="40" viewBox="0 0 40 40" fill="none" xmlns="http://www.w3.org/2000/svg">
<path d="M11.6233 33.2897C11.4872 33.4256 11.65 33.6463 11.8191 33.5549C16.1328 31.2215 21.9567 28.0691 26.8787 25.3959C26.9771 25.3425 26.9951 25.2097 26.9153 25.1311L23.4471 21.7163C23.3819 21.6521 23.2772 21.6525 23.2124 21.7171L11.6233 33.2897Z" fill="white"/>
<path d="M23.2017 17.96C23.2669 18.0246 23.3719 18.0244 23.4368 17.9595L26.9064 14.4931C26.9854 14.4143 26.966 14.2816 26.8678 14.2286L25.1678 13.3109C23.1237 12.2076 20.3847 10.7294 17.605 9.22975C15.5232 8.10664 13.4207 6.97264 11.5704 5.97523C11.401 5.8839 11.2374 6.10485 11.3742 6.24032L23.2017 17.96Z" fill="white"/>
<path d="M5 5.327C5 4.93981 5.05857 4.61565 5.16047 4.34864C5.26578 4.07271 5.61337 4.05156 5.82316 4.25944L21.4309 19.7248C21.4965 19.7899 21.4967 19.896 21.4312 19.9612L5.76676 35.5792C5.536 35.8093 5.15456 35.7536 5.08076 35.4362C5.02719 35.2058 5 34.9503 5 34.6758V5.327Z" fill="white"/>
<path d="M29.4803 23.981C29.4158 24.016 29.336 24.0048 29.2838 23.9534L25.2206 19.9538C25.1545 19.8888 25.1543 19.7823 25.22 19.7169L29.3051 15.6556C29.3574 15.6036 29.4382 15.5925 29.503 15.6278C32.9801 17.5242 35.6925 18.9966 36.5195 19.4341C36.5504 19.4504 36.5744 19.4752 36.5884 19.5073C36.6638 19.6813 36.6812 19.8543 36.6556 20.0208C36.6481 20.0689 36.6169 20.1085 36.5738 20.1312C36.0981 20.3819 34.5056 21.2481 32.2873 22.4547L32.2736 22.4621C31.4247 22.9239 30.4844 23.4353 29.4803 23.981Z" fill="white"/>
</svg>
