<svg width="40" height="40" viewBox="0 0 40 40" fill="none" xmlns="http://www.w3.org/2000/svg">
<path d="M19.505 9.35941C19.5536 7.85204 19.9688 5.63148 21.4138 4.17267C22.7552 2.81853 24.388 2.15856 25.4051 1.85685C25.7977 1.74037 26.1744 2.03644 26.1551 2.44553C26.0869 3.88852 25.7075 6.04084 24.7285 7.19388C23.8057 8.28081 22.3211 9.72217 20.1466 9.96468C19.7907 10.0044 19.4935 9.71735 19.505 9.35941Z" fill="white"/>
<path d="M23.2284 36.9492C24.2726 37.3492 25.3284 37.7536 26.2838 37.7536C28.3278 37.7536 34.2797 33.0377 34.4941 28.1397C34.5051 27.8882 34.3548 27.6635 34.1351 27.5406C32.6211 26.6934 30.1489 24.5839 30.0628 21.5151C29.9625 17.9386 31.7582 15.098 33.1172 13.9229C33.4231 13.6585 33.5282 13.1922 33.2551 12.894C32.0186 11.5436 29.5311 9.68622 27.2614 9.73181C25.6102 9.76499 24.1224 10.3801 22.8458 10.9079C21.8663 11.3128 21.0111 11.6664 20.3017 11.6664C19.6297 11.6664 18.823 11.3151 17.8972 10.9119C16.6503 10.3689 15.1873 9.73181 13.5462 9.73181C10.5063 9.73181 4.50001 12.2526 4.5 21.984C4.49999 27.1429 9.8256 37.8904 14.3195 37.7536C15.2899 37.7536 16.327 37.3518 17.356 36.9531C18.3694 36.5605 19.3751 36.1708 20.3017 36.1708C21.1964 36.1708 22.2069 36.5579 23.2284 36.9492Z" fill="white"/>
</svg>
