<svg width="34" height="34" viewBox="0 0 34 34" fill="none" xmlns="http://www.w3.org/2000/svg">
<path fill-rule="evenodd" clip-rule="evenodd" d="M33.6668 16.9999C33.6668 26.1999 26.1835 33.6666 17.0002 33.6666L16.5339 33.6602C7.5492 33.413 0.333496 26.044 0.333496 16.9999C0.333496 7.81659 7.80016 0.333252 17.0002 0.333252C26.1835 0.333252 33.6668 7.81659 33.6668 16.9999ZM13.7002 10.3333C13.2168 10.8333 13.2168 11.6166 13.7168 12.0999L18.6335 16.9999L13.7168 21.8999C13.2168 22.3833 13.2168 23.1833 13.7002 23.6666C14.2002 24.1666 14.9835 24.1666 15.4668 23.6666L21.2835 17.8833C21.5168 17.6499 21.6502 17.3333 21.6502 16.9999C21.6502 16.6666 21.5168 16.3499 21.2835 16.1166L15.4668 10.3333C15.2335 10.0833 14.9168 9.96659 14.6002 9.96659C14.2668 9.96659 13.9502 10.0833 13.7002 10.3333Z" fill="#0094FF"/>
</svg>
