<svg width="30" height="30" viewBox="0 0 30 30" fill="none" xmlns="http://www.w3.org/2000/svg">
<path fill-rule="evenodd" clip-rule="evenodd" d="M24.7013 15.0012C24.7013 16.0181 25.5362 16.8455 26.5625 16.8455C27.08 16.8455 27.5 17.2616 27.5 17.7744V21.1198C27.5 23.9487 25.1775 26.25 22.3225 26.25H7.67875C4.82375 26.25 2.5 23.9487 2.5 21.1198V17.7744C2.5 17.2616 2.92 16.8455 3.4375 16.8455C4.465 16.8455 5.3 16.0181 5.3 15.0012C5.3 14.0104 4.49875 13.2648 3.4375 13.2648C3.18875 13.2648 2.95125 13.1669 2.775 12.9923C2.59875 12.8176 2.5 12.5811 2.5 12.3358L2.5025 8.88143C2.5025 6.05252 4.825 3.75 7.68 3.75H22.32C25.175 3.75 27.4988 6.05252 27.4988 8.88143L27.5 12.2281C27.5 12.4733 27.4013 12.7111 27.2262 12.8845C27.05 13.0591 26.8125 13.157 26.5625 13.157C25.5362 13.157 24.7013 13.9844 24.7013 15.0012ZM17.815 15.81L19.2887 14.3881C19.545 14.1429 19.6337 13.7812 19.5225 13.4468C19.4125 13.1124 19.125 12.8746 18.7775 12.8263L16.7413 12.5315L15.83 10.7034C15.6737 10.3888 15.3562 10.1931 15.0025 10.1918H15C14.6475 10.1918 14.33 10.3875 14.1712 10.7021L13.26 12.5315L11.2275 12.8251C10.8763 12.8746 10.5887 13.1124 10.4775 13.4468C10.3675 13.7812 10.4563 14.1429 10.7113 14.3881L12.185 15.81L11.8375 17.8202C11.7775 18.167 11.9187 18.5114 12.2063 18.7182C12.3687 18.8334 12.5575 18.8928 12.7487 18.8928C12.895 18.8928 13.0425 18.8569 13.1775 18.7863L15 17.8376L16.8187 18.7839C17.1337 18.9511 17.5075 18.9251 17.7937 18.717C18.0825 18.5114 18.2238 18.167 18.1637 17.8202L17.815 15.81Z" fill="white"/>
</svg>
