<svg width="30" height="30" viewBox="0 0 30 30" fill="none" xmlns="http://www.w3.org/2000/svg">
<path d="M26.7942 3.22748C26.169 2.58575 25.2436 2.34667 24.3807 2.59833L4.26 8.4494C3.34962 8.70232 2.70436 9.42836 2.53054 10.3507C2.35296 11.2894 2.97322 12.481 3.78355 12.9793L10.0749 16.846C10.7201 17.2424 11.553 17.143 12.087 16.6044L19.2911 9.35538C19.6538 8.97789 20.254 8.97789 20.6167 9.35538C20.9793 9.72028 20.9793 10.3117 20.6167 10.6892L13.4 17.9395C12.8648 18.4768 12.7647 19.3135 13.1586 19.9628L17.0027 26.3172C17.4529 27.0722 18.2282 27.5 19.0786 27.5C19.1786 27.5 19.2911 27.5 19.3912 27.4874C20.3666 27.3616 21.1419 26.6947 21.4295 25.751L27.3945 5.65599C27.6571 4.80035 27.4195 3.86921 26.7942 3.22748Z" fill="white"/>
</svg>
