<svg width="30" height="30" viewBox="0 0 30 30" fill="none" xmlns="http://www.w3.org/2000/svg">
<path fill-rule="evenodd" clip-rule="evenodd" d="M2.49988 20.1001V9.88762C2.49988 5.47512 5.33863 2.50012 9.57488 2.50012H20.4124C24.6499 2.50012 27.4999 5.47512 27.4999 9.88762V20.1001C27.4999 24.5251 24.6499 27.5001 20.4124 27.5001H9.57488C5.33863 27.5001 2.49988 24.5251 2.49988 20.1001ZM15.9374 17.8376V9.90012C15.9374 9.37512 15.5124 8.96262 14.9999 8.96262C14.4749 8.96262 14.0624 9.37512 14.0624 9.90012V17.8376L10.9749 14.7376C10.7999 14.5626 10.5499 14.4626 10.3124 14.4626C10.0761 14.4626 9.83738 14.5626 9.64988 14.7376C9.28738 15.1001 9.28738 15.7001 9.64988 16.0626L14.3374 20.7751C14.6874 21.1251 15.3124 21.1251 15.6624 20.7751L20.3499 16.0626C20.7124 15.7001 20.7124 15.1001 20.3499 14.7376C19.9749 14.3751 19.3874 14.3751 19.0124 14.7376L15.9374 17.8376Z" fill="white"/>
</svg>
