<svg width="40" height="40" viewBox="0 0 40 40" fill="none" xmlns="http://www.w3.org/2000/svg">
<path d="M33.6563 30.7063C32.9583 30.7906 31.0297 27.7443 30.7655 27.3214C30.7566 27.3071 30.7353 27.3146 30.7351 27.3314C30.7154 29.3572 29.67 31.9762 27.4348 33.8802C27.4247 33.8888 27.4272 33.9049 27.4397 33.9088C28.5492 34.254 30.9773 35.1564 30.3938 36.1406C29.9177 36.9448 22.2229 36.6542 20.001 36.4031C17.7792 36.6531 10.0844 36.9438 9.60834 36.1406C9.0204 35.1489 11.4856 34.2404 12.5852 33.901C12.5855 33.9009 12.5858 33.9006 12.5858 33.9003L12.5861 33.8986C12.5862 33.8982 12.586 33.8979 12.5858 33.8977C10.317 31.9768 9.26667 29.318 9.2646 27.279C9.2646 27.2788 9.26456 27.2787 9.2645 27.2786L9.26383 27.2771C9.26349 27.2764 9.26293 27.2756 9.26251 27.2763C9.18702 27.3985 7.0813 30.7963 6.34376 30.7063C5.9948 30.6636 5.53543 28.7761 6.95209 24.2156C7.6198 22.0656 8.38438 20.2781 9.56563 17.3292C9.36668 9.71875 12.5115 3.33438 19.999 3.33438C27.4042 3.33542 30.6208 9.59271 30.4333 17.3292C31.6125 20.2729 32.3802 22.0719 33.0469 24.2156C34.4646 28.7771 34.0063 30.6646 33.6563 30.7063Z" fill="white"/>
</svg>
