<svg width="30" height="30" viewBox="0 0 30 30" fill="none" xmlns="http://www.w3.org/2000/svg">
<g clip-path="url(#clip0_1_50)">
<path fill-rule="evenodd" clip-rule="evenodd" d="M2.10883 2.10883C0 4.21766 0 7.61175 0 14.4V15.6C0 22.3883 0 25.7823 2.10883 27.8912C4.21766 30 7.61175 30 14.4 30H15.6C22.3883 30 25.7823 30 27.8912 27.8912C30 25.7823 30 22.3883 30 15.6V14.4C30 7.61175 30 4.21766 27.8912 2.10883C25.7823 0 22.3883 0 15.6 0H14.4C7.61175 0 4.21766 0 2.10883 2.10883ZM5.06257 9.12506C5.22507 16.9251 9.12506 21.6126 15.9626 21.6126H16.3501V17.1501C18.8626 17.4001 20.7625 19.2376 21.525 21.6126H25.0751C24.1001 18.0626 21.5374 16.1001 19.9374 15.3501C21.5374 14.4251 23.7874 12.1751 24.3249 9.12506H21.0999C20.3999 11.6001 18.3251 13.8501 16.3501 14.0626V9.12506H13.125V17.7751C11.125 17.2751 8.60006 14.8501 8.48756 9.12506H5.06257Z" fill="white"/>
</g>
<defs>
<clipPath id="clip0_1_50">
<rect width="30" height="30" fill="white"/>
</clipPath>
</defs>
</svg>
