<svg width="40" height="40" viewBox="0 0 40 40" fill="none" xmlns="http://www.w3.org/2000/svg">
<path d="M21.2109 18.0117V8.11251L34.6328 5.88841V18.0117H21.2109ZM35.2727 5.78238C35.2726 5.78238 35.2726 5.78239 35.2725 5.7824L35.2727 5.78238ZM21.2109 31.9248V21.9922H34.6328V34.1102L21.2109 31.9248ZM35.2712 34.2142L35.2703 34.2141L35.2712 34.2142ZM16.5547 18.0078H5.44141V10.6125L16.5547 8.77121V18.0078ZM4.85887 9.94979L4.85871 9.94885L4.85887 9.94979ZM5.44141 29.4639V21.9922H16.5547V31.2742L5.44141 29.4639ZM17.1931 31.3782L17.1924 31.3781L17.1931 31.3782ZM4.98032 29.3888L4.97984 29.3887L4.97982 29.3887C4.97999 29.3887 4.98016 29.3888 4.98032 29.3888Z" fill="white" stroke="white" stroke-width="1.5" stroke-linejoin="round"/>
</svg>
